# xmcd
#
# Track frame offsets:
# 375
# 22762
# 40215
# 58461
# 74323
# 90542
# 109609
# 123831
# 134597
# 148088
# 162732
# 178280
# 190303
# 204551
#
# Disc length: 2888 seconds
#
#
# Revision: 0
# Processed by: cddbd v1.5.1PL2 Copyright (c) Steve Scherf et al.
# Submitted via: FreeRIP 2.943 
#
DISCID=d70b430e
DTITLE=Klostertaler - Die Klostertaler CD 2 von 2
DYEAR=2003
DGENRE=Folk
TTITLE0=Oh La La
TTITLE1=Her mit meinen Hennen (Goggala)
TTITLE2=Gott schütze die Frauen
TTITLE3=Volle Power
TTITLE4=Marmolada
TTITLE5=Monte Leone
TTITLE6=Na, na, na
TTITLE7=Trau di doch, i beiß di net
TTITLE8=Die Frau ist der Mann im Haus
TTITLE9=Lust auf mehr
TTITLE10=Wenn's di nimmer gibt
TTITLE11=Holz vor der Hütt'n
TTITLE12=Koa Hiatamadl
TTITLE13=Mir geh'n no lang net ins Bett
EXTD=
EXTT0=
EXTT1=
EXTT2=
EXTT3=
EXTT4=
EXTT5=
EXTT6=
EXTT7=
EXTT8=
EXTT9=
EXTT10=
EXTT11=
EXTT12=
EXTT13=
PLAYORDER=
